<mxfile host="app.diagrams.net" modified="2024-11-15T05:14:39.270Z" agent="Mozilla/5.0 (Windows NT 10.0; Win64; x64) AppleWebKit/537.36 (KHTML, like Gecko) Chrome/130.0.0.0 Safari/537.36 Edg/130.0.0.0" version="21.1.4" etag="nXEq90bwNVA2r3FkOfyd" type="github">
  <diagram name="第 1 页" id="0AzI_z2Jrd29WZt3bgPX">
    <mxGraphModel>
      <root>
        <mxCell id="0" />
        <mxCell id="1" parent="0" />
      </root>
    </mxGraphModel>
  </diagram>
</mxfile>
